<svg width="179" height="160" viewBox="0 0 179 160" fill="none" xmlns="http://www.w3.org/2000/svg">
<path d="M20.5835 134.996C20.5835 134.996 64.4721 117.42 80.8655 84.3088C87.6548 70.3768 98.7802 59.023 112.571 51.952C119.145 48.6454 126.007 45.9481 133.073 43.8938" stroke="#535461" stroke-width="2" stroke-miterlimit="10"/>
<path d="M143.536 23.0818C139.169 26.5231 132.743 44.3958 132.743 44.3958C132.743 44.3958 151.63 42.3199 155.99 38.8847C158.086 37.2325 159.441 34.8151 159.755 32.1642C160.069 29.5134 159.318 26.8463 157.665 24.7496C156.013 22.653 153.596 21.2986 150.945 20.9843C148.294 20.6701 145.627 21.4217 143.53 23.0739L143.536 23.0818Z" fill="#3A6344"/>
<path d="M109.062 29.0634C107.258 34.3039 111.592 52.8257 111.592 52.8257C111.592 52.8257 126.323 40.8222 128.114 35.5659C128.541 34.3149 128.718 32.992 128.633 31.6728C128.549 30.3536 128.206 29.064 127.623 27.8775C127.04 26.6909 126.23 25.6308 125.237 24.7576C124.245 23.8844 123.09 23.2152 121.839 22.7882C120.588 22.3612 119.265 22.1849 117.946 22.2691C116.627 22.3534 115.337 22.6967 114.151 23.2794C112.964 23.8621 111.904 24.6728 111.031 25.6652C110.158 26.6576 109.488 27.8123 109.062 29.0634Z" fill="#3A6344"/>
<path d="M68.1917 62.1993C69.3229 67.6739 82.3673 81.4321 82.3673 81.4321C82.3673 81.4321 89.02 63.636 87.9136 58.1929C87.6493 56.8964 87.1323 55.6646 86.392 54.568C85.6516 53.4713 84.7026 52.5312 83.5989 51.8013C82.4953 51.0714 81.2586 50.566 79.9597 50.314C78.6607 50.0621 77.3249 50.0684 76.0284 50.3327C74.7319 50.5969 73.5001 51.114 72.4034 51.8543C71.3067 52.5946 70.3667 53.5437 69.6368 54.6473C68.9069 55.751 68.4015 56.9876 68.1495 58.2865C67.8976 59.5855 67.9039 60.9214 68.1682 62.2179L68.1917 62.1993Z" fill="#3A6344"/>
<path d="M42.9118 94.2286C43.0866 99.782 53.6312 115.587 53.6312 115.587C53.6312 115.587 63.1772 99.1518 63.0446 93.6034C63.0059 92.2812 62.7072 90.9797 62.1655 89.773C61.6238 88.5663 60.8497 87.4782 59.8875 86.5707C58.9252 85.6631 57.7937 84.954 56.5574 84.4838C55.3211 84.0136 54.0042 83.7915 52.6821 83.8302C51.36 83.8689 50.0585 84.1676 48.8518 84.7093C47.6451 85.2511 46.5569 86.0251 45.6494 86.9874C44.7419 87.9496 44.0327 89.0812 43.5625 90.3175C43.0923 91.5538 42.8703 92.8706 42.909 94.1927L42.9118 94.2286Z" fill="#3A6344"/>
<path d="M123.822 70.0903C118.307 69.3439 103.669 57.2482 103.669 57.2482C103.669 57.2482 120.977 49.4024 126.48 50.1331C127.817 50.2756 129.111 50.6845 130.287 51.3357C131.463 51.9868 132.496 52.8671 133.326 53.9244C134.156 54.9816 134.766 56.1946 135.12 57.4915C135.473 58.7883 135.563 60.1429 135.384 61.4751C135.205 62.8073 134.761 64.0902 134.078 65.248C133.395 66.4057 132.487 67.4148 131.408 68.2157C130.328 69.0166 129.099 69.593 127.793 69.911C126.487 70.2289 125.13 70.2819 123.804 70.0667L123.822 70.0903Z" fill="#3A6344"/>
<path d="M93.7776 107.173C88.7193 104.793 78.3924 88.8933 78.3924 88.8933C78.3924 88.8933 97.2506 86.586 102.284 88.9344C103.483 89.4945 104.56 90.2852 105.453 91.2614C106.346 92.2376 107.038 93.3802 107.49 94.6239C107.941 95.8677 108.144 97.1881 108.085 98.51C108.026 99.8319 107.708 101.129 107.148 102.328C106.588 103.527 105.797 104.604 104.821 105.497C103.844 106.39 102.702 107.082 101.458 107.534C100.214 107.985 98.8939 108.187 97.572 108.129C96.2502 108.07 94.9528 107.752 93.754 107.191L93.7776 107.173Z" fill="#3A6344"/>
<path d="M59.6455 139.214C54.2869 137.745 41.3859 123.797 41.3859 123.797C41.3859 123.797 59.5972 118.359 64.9608 119.785C67.5386 120.485 69.7327 122.181 71.0604 124.499C72.388 126.817 72.7404 129.567 72.0401 132.145C71.3398 134.723 69.6442 136.917 67.3261 138.245C65.0081 139.573 62.2577 139.925 59.6798 139.225L59.6455 139.214Z" fill="#3A6344"/>
<path opacity="0.5" d="M143.536 23.0818C139.169 26.5231 132.743 44.3958 132.743 44.3958C132.743 44.3958 151.63 42.3199 155.99 38.8847C158.086 37.2325 159.441 34.8151 159.755 32.1642C160.069 29.5134 159.318 26.8463 157.665 24.7496C156.013 22.653 153.596 21.2986 150.945 20.9843C148.294 20.6701 145.627 21.4217 143.53 23.0739L143.536 23.0818Z" fill="white"/>
<path opacity="0.5" d="M109.062 29.0634C107.258 34.3039 111.592 52.8257 111.592 52.8257C111.592 52.8257 126.323 40.8222 128.114 35.5659C128.541 34.3149 128.718 32.992 128.633 31.6728C128.549 30.3536 128.206 29.064 127.623 27.8775C127.04 26.6909 126.23 25.6308 125.237 24.7576C124.245 23.8844 123.09 23.2152 121.839 22.7882C120.588 22.3612 119.265 22.1849 117.946 22.2691C116.627 22.3534 115.337 22.6967 114.151 23.2794C112.964 23.8621 111.904 24.6728 111.031 25.6652C110.158 26.6576 109.488 27.8123 109.062 29.0634Z" fill="white"/>
<path opacity="0.5" d="M68.1917 62.1993C69.3229 67.6739 82.3673 81.4321 82.3673 81.4321C82.3673 81.4321 89.02 63.636 87.9136 58.1929C87.6493 56.8964 87.1323 55.6646 86.392 54.568C85.6516 53.4713 84.7026 52.5312 83.5989 51.8013C82.4953 51.0714 81.2586 50.566 79.9597 50.314C78.6607 50.0621 77.3249 50.0684 76.0284 50.3327C74.7319 50.5969 73.5001 51.114 72.4034 51.8543C71.3067 52.5946 70.3667 53.5437 69.6368 54.6473C68.9069 55.751 68.4015 56.9876 68.1495 58.2865C67.8976 59.5855 67.9039 60.9214 68.1682 62.2179L68.1917 62.1993Z" fill="white"/>
<path opacity="0.5" d="M42.9118 94.2286C43.0866 99.782 53.6312 115.587 53.6312 115.587C53.6312 115.587 63.1772 99.1518 63.0446 93.6034C63.0059 92.2812 62.7072 90.9797 62.1655 89.773C61.6238 88.5663 60.8497 87.4782 59.8875 86.5707C58.9252 85.6631 57.7937 84.954 56.5574 84.4838C55.3211 84.0136 54.0042 83.7915 52.6821 83.8302C51.36 83.8689 50.0585 84.1676 48.8518 84.7093C47.6451 85.2511 46.5569 86.0251 45.6494 86.9874C44.7419 87.9496 44.0327 89.0812 43.5625 90.3175C43.0923 91.5538 42.8703 92.8706 42.909 94.1927L42.9118 94.2286Z" fill="white"/>
<path opacity="0.5" d="M123.822 70.0903C118.307 69.3439 103.669 57.2482 103.669 57.2482C103.669 57.2482 120.977 49.4024 126.48 50.1331C127.817 50.2756 129.111 50.6845 130.287 51.3357C131.463 51.9868 132.496 52.8671 133.326 53.9244C134.156 54.9816 134.766 56.1946 135.12 57.4915C135.473 58.7883 135.563 60.1429 135.384 61.4751C135.205 62.8073 134.761 64.0902 134.078 65.248C133.395 66.4057 132.487 67.4148 131.408 68.2157C130.328 69.0166 129.099 69.593 127.793 69.911C126.487 70.2289 125.13 70.2819 123.804 70.0667L123.822 70.0903Z" fill="white"/>
<path opacity="0.5" d="M93.7776 107.173C88.7193 104.793 78.3924 88.8933 78.3924 88.8933C78.3924 88.8933 97.2506 86.586 102.284 88.9344C103.483 89.4945 104.56 90.2852 105.453 91.2614C106.346 92.2376 107.038 93.3802 107.49 94.6239C107.941 95.8677 108.144 97.1881 108.085 98.51C108.026 99.8319 107.708 101.129 107.148 102.328C106.588 103.527 105.797 104.604 104.821 105.497C103.844 106.39 102.702 107.082 101.458 107.534C100.214 107.985 98.8939 108.187 97.572 108.129C96.2502 108.07 94.9528 107.752 93.754 107.191L93.7776 107.173Z" fill="white"/>
<path opacity="0.5" d="M59.6455 139.214C54.2869 137.745 41.3859 123.797 41.3859 123.797C41.3859 123.797 59.5972 118.359 64.9608 119.785C67.5386 120.485 69.7327 122.181 71.0604 124.499C72.388 126.817 72.7404 129.567 72.0401 132.145C71.3398 134.723 69.6442 136.917 67.3261 138.245C65.0081 139.573 62.2577 139.925 59.6798 139.225L59.6455 139.214Z" fill="white"/>
</svg>
