<svg width="827" height="827" viewBox="0 0 827 827" fill="none" xmlns="http://www.w3.org/2000/svg">
<path d="M827 0H0V827H827V0Z" fill="#F2EAE8"/>
<path d="M85.5944 412.26C88.2698 384.142 96.7589 344.723 126.944 321.29C168.017 289.388 209.888 317.7 248.513 286.142C289.983 252.26 268.423 196.934 308.884 169.122C335.055 151.134 370.202 156.229 396.546 163.746" stroke="black" stroke-width="1.4267" stroke-linecap="round" stroke-linejoin="round"/>
<path d="M466.428 167.881C471.469 170.288 501.117 183.855 535.483 170.776C570.994 157.258 583.949 125.791 585.93 120.742" stroke="black" stroke-width="1.4267" stroke-linecap="round" stroke-linejoin="round"/>
<path d="M421.402 694.68L426.364 722.43C415.679 731.182 403.797 738.362 391.08 743.75C364.674 754.874 346.931 747.224 346.65 753.145C346.563 754.989 343.052 765.604 352.852 769.11L481.579 766.447C483.19 766.412 484.773 766.019 486.213 765.295C487.652 764.572 488.913 763.537 489.903 762.265C490.893 760.994 491.587 759.518 491.935 757.945C492.284 756.371 492.277 754.74 491.916 753.17C486.053 727.607 480.187 702.046 474.318 676.486L421.402 694.68Z" fill="black"/>
<path d="M662.567 600.96L687.514 587.832C699.095 595.366 709.538 604.519 718.526 615.011C737.134 636.811 736.948 659.086 742.679 657.56C744.461 657.085 753.893 654.17 754.257 643.766L712.754 521.887C712.234 520.36 711.381 518.969 710.256 517.814C709.131 516.659 707.763 515.769 706.251 515.209C704.739 514.649 703.121 514.433 701.515 514.576C699.909 514.72 698.355 515.22 696.967 516.04L629.21 556.021L662.567 600.96Z" fill="black"/>
<path d="M422.721 422.514C419.343 446.778 421.917 471.499 430.222 494.546C445.999 520.136 465.129 543.499 487.103 564.014C502.076 577.978 520.803 595.8 546.234 607.431C601.734 632.816 657.581 619.047 680.208 611.98C670.975 583.862 661.741 555.744 652.503 527.626C641.93 529.941 620.506 532.96 597.094 523.904C547.342 504.664 535.545 449.061 534.656 444.512L422.721 422.514Z" fill="#DD3354"/>
<path d="M553.126 420.666C554.441 427.016 555.134 433.479 555.194 439.964C555.698 500.777 498.499 526.563 485.172 581.658C480.76 599.906 479.267 629.178 500.058 670.974L399.718 706.808C390.642 688.891 368.428 639.122 377.112 573.938C385.382 511.748 417.064 470.799 430.317 455.4C430.868 444.282 431.42 433.165 431.971 422.047L553.126 420.666Z" fill="#DD3354"/>
<path d="M595.44 517.152C605.735 554.086 603.308 593.41 588.547 628.797L687.787 622.181L659.119 522.941L595.44 517.152Z" fill="#275F7C"/>
<path d="M370.496 632.932C410.407 633.823 450.136 627.279 487.653 613.634L508.605 674.555L395.306 713.151L370.496 632.932Z" fill="#275F7C"/>
<path d="M438.955 445.571C434.407 450.396 429.817 455.706 425.227 461.532C415.51 473.87 406.995 487.108 399.797 501.067" stroke="black" stroke-width="1.4267" stroke-linecap="round" stroke-linejoin="round"/>
<path d="M485.172 581.658C486.704 575.75 488.677 569.966 491.073 564.353C496.382 551.923 502.444 543.496 506.542 537.889C535.85 497.63 542.409 490.787 548.305 475.566C551.16 468.168 553.218 460.488 554.446 452.654" stroke="black" stroke-width="1.4267" stroke-linecap="round" stroke-linejoin="round"/>
<path d="M396.41 154.926C389.686 162.505 389.562 172.367 389.517 176.151C389.136 206.646 422.952 224.617 424.664 225.494L582.208 330.8L603.71 305.99L590.341 292.758C592.393 292.969 594.421 293.361 596.403 293.928C600.917 295.235 605.131 297.412 608.808 300.337L621.077 284.074C618.484 281.13 613.956 276.826 607.295 274.564C594.567 270.247 587.885 278.091 578.623 274.287C566.681 269.387 571.643 253.823 558.225 244.792C546.465 236.877 537.856 245.619 527.258 237.626C515.8 229 522.498 216.277 510.511 205.737C500.356 196.809 492.139 202.946 481.591 194.068C470.302 184.557 475.674 174.162 466.705 162.369C451.885 142.885 411.693 137.728 396.41 154.926Z" fill="black"/>
<path d="M294.826 441.043L283.248 388.115L264.437 391.274C264.437 390.708 263.887 379.841 256.581 376.016C249.088 372.096 236.402 376.587 230.903 389.161L205.303 394.715C202.776 395.586 200.628 397.304 199.224 399.579C197.82 401.854 197.246 404.544 197.6 407.194C197.954 409.843 199.214 412.289 201.166 414.115C203.118 415.941 205.642 417.036 208.309 417.213C203.711 418.569 200.713 422.837 201.007 427.211C201.346 432.289 206.047 436.528 211.687 436.238C209.551 437.526 207.916 439.502 207.051 441.842C206.186 444.182 206.143 446.747 206.928 449.115C208.714 454.246 214.309 457.335 219.846 456.041L294.826 441.043Z" fill="#FF9E9F"/>
<path d="M231.655 389.046L227.934 412.098C228.633 416.233 232.003 419.314 235.873 419.541C237.482 419.605 239.077 419.22 240.48 418.429C241.882 417.638 243.038 416.473 243.816 415.063C245.619 408.635 247.419 402.205 249.217 395.773C246.26 402.05 246.802 408.885 250.614 413.095C252.379 414.982 254.667 416.301 257.185 416.882" stroke="black" stroke-width="1.4267" stroke-linecap="round" stroke-linejoin="round"/>
<path d="M209.082 416.692L228.103 411.097" stroke="black" stroke-width="1.4267" stroke-linecap="round" stroke-linejoin="round"/>
<path d="M212.386 437.772L235.021 430.375C235.521 430.23 242.58 428.034 244.329 421.435C244.916 419.119 244.804 416.682 244.006 414.43" stroke="black" stroke-width="1.4267" stroke-linecap="round" stroke-linejoin="round"/>
<path d="M224.427 451.79L240.785 443.272C240.922 443.157 244.267 440.283 243.584 436.243C243.018 432.873 239.917 430.181 236.088 429.999" stroke="black" stroke-width="1.4267" stroke-linecap="round" stroke-linejoin="round"/>
<path d="M697.289 446.816L626.866 498.309C620.626 502.857 620.333 513.079 626.204 521.114L640.677 540.891L649.58 534.383L640.933 522.557C635.062 514.526 634.47 504.966 639.61 501.203L697.686 458.741C702.83 454.982 711.745 458.443 717.633 466.478L726.276 478.3L733.694 472.879L719.221 453.101C713.345 445.067 703.529 442.255 697.289 446.816Z" fill="#275F7C"/>
<path d="M650.27 404.605L608.258 438.781L619.551 454.151C619.059 454.424 609.594 459.795 609.478 468.045C609.354 476.501 619.076 485.8 632.783 485.044C638.277 491.831 643.774 498.613 649.274 505.392C651.19 507.255 653.692 508.398 656.355 508.627C659.018 508.855 661.678 508.155 663.884 506.646C666.089 505.137 667.705 502.91 668.456 500.345C669.207 497.78 669.048 495.034 668.005 492.573C671.288 496.063 676.445 496.82 680.22 494.587C684.603 491.995 686.265 485.904 683.466 480.987C685.58 482.315 688.082 482.884 690.562 482.6C693.042 482.317 695.352 481.198 697.111 479.428C700.887 475.525 701.122 469.14 697.471 464.778C681.733 444.718 666 424.66 650.27 404.605Z" fill="#FF9E9F"/>
<path d="M277.69 380.052C284.058 401.86 290.429 423.668 296.802 445.476C307.454 447.655 330.568 450.793 356.346 440.882C400.81 423.792 416.853 381.85 419.38 374.908C420.546 391.539 421.711 408.17 422.874 424.801C432.207 425.801 441.895 426.558 451.956 427.009C485.809 428.504 519.725 426.378 553.127 420.666C550.138 404.636 547.151 388.602 544.166 372.563C550.36 378.6 556.608 385.079 562.91 391.998C578.42 409.111 592.555 427.423 605.182 446.762C624.8 438.078 642.202 425.074 656.088 408.72C648.442 397.419 636.509 380.407 620.8 360.572C574.149 301.656 550.823 272.199 512.004 257.842C500.753 253.678 453.502 237.87 407.988 260.228C399.396 264.45 376.562 275.887 362.776 300.478C348.241 326.384 356.987 343.341 343.482 360.295C334.856 371.112 317.274 381.793 277.69 380.052Z" fill="#DD3354"/>
<path d="M418.462 405.966C429.765 406.115 441.343 406.053 453.196 405.78C485.647 405.008 518.035 402.555 550.232 398.432C551.944 406.088 553.659 413.744 555.376 421.402C522.783 426.991 489.753 429.636 456.686 429.304C443.715 429.172 431.264 428.585 419.38 427.65L418.462 405.966Z" fill="white"/>
<path d="M568.058 403.576L576.142 413.132C597.012 402.118 613.961 384.913 624.662 363.88L617.31 354.506C605.112 374.613 588.21 391.453 568.058 403.576Z" fill="white"/>
<path d="M587.906 427.836L595.99 437.392C616.858 426.375 633.806 409.171 644.51 388.14L637.158 378.766C624.961 398.873 608.058 415.713 587.906 427.836Z" fill="white"/>
<path d="M333.695 367.602L321.29 372.15C325.077 398.223 335.231 422.96 350.855 444.174L363.843 441.139C350.057 418.33 339.887 393.524 333.695 367.602Z" fill="white"/>
<path d="M303.294 376.616L289.727 379.511C291.4 405.778 300.164 431.101 315.087 452.783L329.833 449.822C315.185 427.937 306.077 402.82 303.294 376.633V376.616Z" fill="white"/>
<path d="M403.026 161.174C399.66 165.565 390.063 179.31 391.353 197.93C391.725 203.268 393.007 221.913 407.161 230.365C411.246 232.749 415.849 234.106 420.575 234.318L421.22 269.052L434.452 289.727L464.497 263.813C459.259 246.721 454.022 229.63 448.784 212.539C450.33 212.539 457.223 212.46 461.602 207.44C467.805 200.336 466.225 186.513 457.881 182.49C452.894 180.087 446.257 181.555 441.068 185.798C432.139 185.692 423.465 182.801 416.258 177.528C410.544 173.274 405.993 167.65 403.026 161.174Z" fill="#FF9E9F"/>
<path d="M395.926 191.381C397.524 190.497 399.28 189.935 401.095 189.727C404.471 189.404 407.855 190.257 410.676 192.141C410.656 194.135 410.425 196.122 409.985 198.067C409.245 201.325 407.939 204.428 406.127 207.234L411.639 209.715" stroke="black" stroke-width="1.4267" stroke-linecap="round" stroke-linejoin="round"/>
<path d="M419.702 192.625C421.654 191.186 423.923 190.24 426.318 189.867C429.885 189.367 433.514 190.121 436.586 192.001" stroke="black" stroke-width="1.4267" stroke-linecap="round" stroke-linejoin="round"/>
<path d="M407.078 219.238C408.998 220.126 411.042 220.713 413.14 220.979C416.766 221.425 420.446 220.929 423.825 219.54" stroke="black" stroke-width="1.4267" stroke-linecap="round" stroke-linejoin="round"/>
<path d="M454.887 189.999L446.489 198.162L455.586 202.826" stroke="black" stroke-width="1.4267" stroke-linecap="round" stroke-linejoin="round"/>
<path d="M401.645 289.173C400.091 299.257 399.216 309.434 399.028 319.636C398.676 339.161 401.132 344.942 402.29 347.34C406.69 356.437 414.112 361.718 418.83 364.43L422.874 424.801" stroke="black" stroke-width="1.4267" stroke-linecap="round" stroke-linejoin="round"/>
<path d="M434.407 290.691C433.166 293.817 417.991 333.695 437.483 353.679C439.892 356.137 442.685 358.186 445.753 359.745C446.348 371.832 447.543 384.94 449.611 398.891C451.029 408.427 452.716 417.445 454.573 425.905" stroke="black" stroke-width="1.4267" stroke-linecap="round" stroke-linejoin="round"/>
<path d="M457.745 310.952C455.202 327.667 458.88 344.734 468.082 358.918L508.605 358.091L499.922 310.125L457.745 310.952Z" stroke="black" stroke-width="1.4267" stroke-linecap="round" stroke-linejoin="round"/>
<path d="M499.922 310.125L480.764 334.799L457.745 310.952" stroke="black" stroke-width="1.4267" stroke-linecap="round" stroke-linejoin="round"/>
<path d="M434.452 289.727L452.551 304.704C465.805 287.855 476.461 269.115 484.163 249.109L458.195 243.241C456.475 248.203 454.436 253.438 451.993 258.851C447.128 269.671 441.255 280.008 434.452 289.727Z" fill="#275F7C"/>
<path d="M420.666 244.701L404.353 260.038C405.31 275.851 410.021 291.209 418.094 304.841L434.452 289.727C426.482 275.967 421.766 260.565 420.666 244.701Z" fill="#275F7C"/>
<path d="M716.841 470.736L622.213 542.121C616.681 546.294 615.58 554.161 619.753 559.692L662.971 616.982C667.143 622.513 675.01 623.615 680.541 619.442L775.169 548.057C780.701 543.884 781.802 536.018 777.629 530.486L734.411 473.196C730.239 467.665 722.372 466.564 716.841 470.736Z" fill="#FF9E9F"/>
<path d="M733.201 458.392L638.573 529.777C633.041 533.95 631.94 541.817 636.113 547.348L679.331 604.638C683.503 610.169 691.37 611.27 696.901 607.098L791.529 535.713C797.061 531.54 798.162 523.673 793.99 518.142L750.772 460.852C746.599 455.321 738.732 454.219 733.201 458.392Z" fill="#DD3354"/>
<path d="M715.049 564.977C732.887 564.977 747.347 550.517 747.347 532.679C747.347 514.841 732.887 500.38 715.049 500.38C697.211 500.38 682.75 514.841 682.75 532.679C682.75 550.517 697.211 564.977 715.049 564.977Z" fill="white"/>
<path d="M704.956 511.44L697.338 517.187C695.281 518.738 694.872 521.663 696.423 523.72L718.613 553.135C720.165 555.192 723.09 555.601 725.146 554.05L732.765 548.303C734.821 546.751 735.231 543.826 733.679 541.77L711.489 512.354C709.938 510.298 707.013 509.888 704.956 511.44Z" fill="#DD3354"/>
<path d="M736.289 522.587L730.541 514.968C728.99 512.911 726.065 512.502 724.009 514.053L694.593 536.244C692.536 537.795 692.127 540.72 693.678 542.776L699.426 550.395C700.977 552.452 703.902 552.861 705.958 551.31L735.374 529.119C737.43 527.568 737.84 524.643 736.289 522.587Z" fill="#DD3354"/>
<path d="M80.955 496.2C101.508 496.2 118.17 493.608 118.17 490.411C118.17 487.214 101.508 484.622 80.955 484.622C60.4018 484.622 43.7401 487.214 43.7401 490.411C43.7401 493.608 60.4018 496.2 80.955 496.2Z" fill="white"/>
<path d="M109.648 434.427C109.646 430.671 108.905 426.952 107.466 423.483C106.027 420.013 103.919 416.861 101.262 414.206C95.8956 408.845 88.6193 405.835 81.0336 405.838C73.448 405.841 66.1743 408.858 60.8127 414.224C55.4512 419.59 52.4409 426.866 52.4442 434.452C52.4442 434.812 52.4442 435.242 52.4773 435.717L52.5021 436.193C52.5021 436.412 52.5352 436.64 52.5559 436.875C52.9075 441.048 54.1784 445.091 56.2774 448.714C56.3601 448.858 56.4345 449.003 56.5213 449.127C56.5375 449.148 56.5514 449.17 56.5627 449.193L56.7405 449.479C56.9183 449.76 57.092 450.033 57.2698 450.306L57.4517 450.574C57.6543 450.868 57.8652 451.153 58.0637 451.435L58.1877 451.604C58.7253 452.315 59.2711 452.973 59.8169 453.576L59.9782 453.754C60.2635 454.064 60.5447 454.362 60.8259 454.647C61.1153 454.941 61.4048 455.21 61.6901 455.474L61.9216 455.685C62.207 455.942 62.4881 456.182 62.7487 456.409L62.9843 456.603C63.2821 456.843 63.5715 457.075 63.8486 457.281L64.0429 457.426C64.3654 457.666 64.6756 457.885 64.965 458.08L65.1263 458.191L65.73 458.605C67.5166 461.18 69.1513 463.857 70.6258 466.622C74.3178 473.558 76.9916 480.989 78.565 488.687H82.1501H83.527C85.0964 480.993 87.7661 473.567 91.4538 466.635C92.9238 463.877 94.553 461.207 96.3331 458.638C100.236 456.172 103.483 452.797 105.796 448.801C108.109 444.806 109.42 440.309 109.615 435.697C109.635 435.242 109.644 434.837 109.648 434.489V434.448V434.427ZM81.046 446.948C78.737 446.949 76.4795 446.265 74.5592 444.983C72.639 443.7 71.1422 441.877 70.2581 439.744C69.3741 437.611 69.1426 435.263 69.5929 432.999C70.0432 430.734 71.155 428.654 72.7878 427.021C74.4205 425.388 76.5008 424.276 78.7656 423.826C81.0303 423.376 83.3778 423.607 85.5109 424.491C87.6441 425.375 89.4671 426.872 90.7494 428.792C92.0318 430.713 92.7158 432.97 92.715 435.279C92.715 438.374 91.4856 441.342 89.2972 443.53C87.1089 445.719 84.1408 446.948 81.046 446.948Z" fill="#F16D55"/>
<path d="M583.035 123.736C603.588 123.736 620.25 121.144 620.25 117.947C620.25 114.75 603.588 112.158 583.035 112.158C562.482 112.158 545.82 114.75 545.82 117.947C545.82 121.144 562.482 123.736 583.035 123.736Z" fill="white"/>
<path d="M611.633 61.0905C611.542 53.565 608.489 46.3784 603.135 41.0887C597.782 35.799 590.559 32.8326 583.033 32.8326C575.507 32.8326 568.284 35.799 562.93 41.0887C557.577 46.3784 554.524 53.565 554.433 61.0905C554.433 61.4544 554.433 61.8803 554.466 62.3559L554.503 62.852C554.503 63.0712 554.537 63.2986 554.557 63.5343C554.91 67.7066 556.18 71.7494 558.279 75.3728C558.361 75.5176 558.436 75.6623 558.523 75.807L558.564 75.869C558.622 75.9683 558.684 76.0592 558.742 76.1585C558.915 76.4397 559.093 76.7126 559.271 76.9855L559.453 77.2543C559.656 77.5478 559.866 77.8331 560.065 78.1102L560.189 78.2839C560.727 78.9951 561.272 79.6525 561.818 80.2563L561.979 80.4341C562.265 80.7442 562.546 81.0419 562.806 81.3231C563.096 81.6125 563.385 81.8855 563.671 82.1501L563.902 82.361C564.188 82.6173 564.469 82.8572 564.729 83.0846L564.965 83.2789C565.259 83.5188 565.548 83.7462 565.829 83.9571L566.024 84.1018C566.346 84.3416 566.656 84.5608 566.941 84.7551L567.107 84.8668L567.711 85.2803C569.498 87.8547 571.133 90.5319 572.606 93.2981C576.302 100.234 578.979 107.667 580.554 115.367H584.139H585.516C587.086 107.673 589.754 100.245 593.439 93.3105C594.913 90.5406 596.547 87.8593 598.334 85.2803C602.237 82.8134 605.484 79.4375 607.798 75.4414C610.111 71.4454 611.421 66.9483 611.616 62.3352C611.637 61.8845 611.645 61.4792 611.645 61.1319V61.1112L611.633 61.0905ZM583.035 73.603C580.726 73.6039 578.469 72.9199 576.549 71.6378C574.628 70.3556 573.132 68.5328 572.247 66.3999C571.363 64.267 571.132 61.9198 571.581 59.6552C572.031 57.3905 573.143 55.3102 574.775 53.6773C576.408 52.0444 578.487 50.9322 580.752 50.4814C583.016 50.0307 585.364 50.2616 587.497 51.145C589.63 52.0284 591.453 53.5246 592.736 55.4443C594.019 57.364 594.704 59.621 594.704 61.9299C594.704 63.4627 594.403 64.9805 593.817 66.3967C593.231 67.813 592.371 69.0998 591.288 70.1838C590.204 71.2678 588.917 72.1277 587.501 72.7144C586.085 73.3011 584.568 73.603 583.035 73.603Z" fill="#F16D55"/>
<path d="M246.186 308.934C263.441 308.934 277.43 294.946 277.43 277.69C277.43 260.434 263.441 246.446 246.186 246.446C228.93 246.446 214.941 260.434 214.941 277.69C214.941 294.946 228.93 308.934 246.186 308.934Z" fill="#FFECE5" stroke="black" stroke-width="1.4267" stroke-linecap="round" stroke-linejoin="round"/>
<path d="M246.185 254.625V277.69L259.678 290.645" stroke="black" stroke-width="1.4267" stroke-linecap="round" stroke-linejoin="round"/>
<path d="M320.876 112.497L277.397 142.79C276.582 143.359 275.98 144.184 275.687 145.133C275.393 146.083 275.424 147.103 275.776 148.033L281.006 161.712L269.9 169.444C269.084 170.012 268.481 170.837 268.187 171.787C267.892 172.736 267.923 173.757 268.275 174.687L271.434 183.052C271.675 183.687 272.058 184.257 272.554 184.721C273.049 185.185 273.644 185.53 274.293 185.729C274.941 185.929 275.627 185.977 276.298 185.872C276.968 185.766 277.605 185.509 278.161 185.12L281.205 182.999C280.573 182.092 280.127 181.069 279.89 179.99C279.654 178.911 279.632 177.795 279.827 176.707C280.022 175.619 280.429 174.581 281.025 173.65C281.621 172.72 282.394 171.916 283.301 171.284C284.208 170.653 285.23 170.206 286.31 169.97C287.389 169.733 288.505 169.712 289.593 169.906C290.681 170.101 291.719 170.508 292.65 171.104C293.58 171.7 294.384 172.474 295.016 173.381L301.504 168.861L317.944 157.411C316.669 155.579 316.173 153.316 316.567 151.118C316.961 148.921 318.211 146.97 320.043 145.695C321.875 144.419 324.138 143.924 326.336 144.317C328.533 144.711 330.484 145.961 331.759 147.793L335.659 145.077C336.477 144.507 337.081 143.679 337.374 142.726C337.668 141.772 337.633 140.748 337.275 139.817L327.612 114.531C327.367 113.899 326.98 113.331 326.483 112.87C325.985 112.41 325.389 112.068 324.74 111.872C324.091 111.676 323.405 111.63 322.736 111.739C322.066 111.847 321.43 112.106 320.876 112.497V112.497Z" stroke="black" stroke-width="1.4267" stroke-linecap="round" stroke-linejoin="round"/>
<path d="M288.007 185.649C292.065 185.649 295.355 182.36 295.355 178.301C295.355 174.243 292.065 170.953 288.007 170.953C283.949 170.953 280.659 174.243 280.659 178.301C280.659 182.36 283.949 185.649 288.007 185.649Z" stroke="black" stroke-width="1.4267" stroke-linecap="round" stroke-linejoin="round"/>
<path d="M324.85 159.988C328.908 159.988 332.198 156.698 332.198 152.64C332.198 148.582 328.908 145.292 324.85 145.292C320.792 145.292 317.502 148.582 317.502 152.64C317.502 156.698 320.792 159.988 324.85 159.988Z" stroke="black" stroke-width="1.4267" stroke-linecap="round" stroke-linejoin="round"/>
<path d="M306.404 137.733L302.992 140.11C302.632 140.36 302.188 140.456 301.757 140.379C301.326 140.301 300.944 140.056 300.693 139.697L298.316 136.281C298.065 135.922 297.682 135.677 297.251 135.599C296.82 135.522 296.376 135.618 296.016 135.868L292.183 138.535C292.005 138.659 291.853 138.817 291.735 139C291.618 139.183 291.538 139.387 291.499 139.601C291.461 139.815 291.465 140.034 291.511 140.246C291.558 140.459 291.646 140.66 291.77 140.838L294.143 144.25C294.393 144.609 294.489 145.054 294.412 145.485C294.334 145.915 294.089 146.298 293.73 146.549L290.318 148.926C289.959 149.177 289.714 149.559 289.636 149.99C289.559 150.421 289.655 150.865 289.905 151.225L292.576 155.058C292.827 155.418 293.209 155.663 293.64 155.74C294.071 155.818 294.515 155.721 294.875 155.472L298.287 153.098C298.646 152.849 299.091 152.752 299.522 152.83C299.953 152.907 300.335 153.153 300.586 153.512L302.963 156.923C303.214 157.282 303.596 157.528 304.027 157.605C304.458 157.683 304.902 157.586 305.262 157.337L309.095 154.666C309.455 154.415 309.7 154.032 309.777 153.602C309.855 153.171 309.758 152.726 309.509 152.367L307.131 148.955C306.882 148.595 306.785 148.151 306.863 147.72C306.94 147.289 307.186 146.907 307.545 146.656L310.96 144.278C311.32 144.028 311.565 143.645 311.642 143.214C311.72 142.783 311.623 142.339 311.374 141.979L308.703 138.146C308.452 137.787 308.07 137.542 307.639 137.464C307.208 137.387 306.763 137.483 306.404 137.733V137.733Z" stroke="black" stroke-width="1.14136" stroke-linecap="round" stroke-linejoin="round"/>
</svg>
